<svg width="100" height="100" viewBox="0 0 100 100" fill="none" xmlns="http://www.w3.org/2000/svg">
<rect width="100" height="100" rx="20" fill="white"/>
<path d="M27.28 35.488C27.28 37.152 27.6853 38.6027 28.496 39.84C29.3067 41.0773 30.288 42.1227 31.44 42.976C32.592 43.7867 34.2133 44.832 36.304 46.112C38.5227 47.4347 40.2507 48.544 41.488 49.44C42.7253 50.336 43.7707 51.488 44.624 52.896C45.52 54.2613 45.968 55.904 45.968 57.824C45.968 59.872 45.456 61.728 44.432 63.392C43.408 65.056 41.8933 66.3787 39.888 67.36C37.9253 68.2987 35.5573 68.768 32.784 68.768C29.4987 68.768 26.4907 68.0213 23.76 66.528C23.5467 66.4 23.3973 66.2507 23.312 66.08C23.2693 65.9093 23.2267 65.6533 23.184 65.312L22.352 56.608C22.3093 56.4373 22.3947 56.3307 22.608 56.288C22.864 56.2453 23.0133 56.3093 23.056 56.48C23.696 59.5093 24.9547 62.1547 26.832 64.416C28.7093 66.6347 31.184 67.744 34.256 67.744C36.3893 67.744 38.1813 67.168 39.632 66.016C41.1253 64.8213 41.872 62.944 41.872 60.384C41.872 58.464 41.4453 56.8 40.592 55.392C39.7387 53.984 38.6933 52.832 37.456 51.936C36.2613 50.9973 34.6187 49.9093 32.528 48.672C30.48 47.4347 28.8587 46.368 27.664 45.472C26.512 44.576 25.5307 43.4453 24.72 42.08C23.9093 40.7147 23.504 39.1147 23.504 37.28C23.504 35.1467 24.0587 33.3333 25.168 31.84C26.32 30.304 27.792 29.1733 29.584 28.448C31.4187 27.68 33.36 27.296 35.408 27.296C37.9253 27.296 40.4213 27.808 42.896 28.832C43.536 29.0453 43.856 29.408 43.856 29.92L44.304 37.216C44.304 37.4293 44.176 37.536 43.92 37.536C43.7067 37.536 43.5787 37.4507 43.536 37.28C43.2373 35.0613 42.3413 33.0133 40.848 31.136C39.3547 29.216 37.2 28.256 34.384 28.256C31.9947 28.256 30.2027 28.96 29.008 30.368C27.856 31.7333 27.28 33.44 27.28 35.488ZM52.1255 68C52.0402 68 51.9975 67.872 51.9975 67.616C51.9975 67.36 52.0402 67.232 52.1255 67.232C53.7468 67.232 54.9415 67.1253 55.7095 66.912C56.4775 66.6987 56.9895 66.2933 57.2455 65.696C57.5442 65.056 57.6935 64.096 57.6935 62.816V33.184C57.6935 31.904 57.5442 30.9653 57.2455 30.368C56.9895 29.7707 56.4775 29.3653 55.7095 29.152C54.9842 28.896 53.8108 28.768 52.1895 28.768C52.1042 28.768 52.0615 28.64 52.0615 28.384C52.0615 28.128 52.1042 28 52.1895 28H77.9175C78.3015 28 78.4935 28.192 78.4935 28.576L78.6215 36.448C78.6215 36.576 78.4935 36.6613 78.2375 36.704C78.0242 36.704 77.9175 36.64 77.9175 36.512C77.7895 34.2507 77.1068 32.5013 75.8695 31.264C74.6322 29.984 72.9895 29.344 70.9415 29.344H67.0375C65.5868 29.344 64.4988 29.4507 63.7735 29.664C63.0482 29.8773 62.5362 30.2613 62.2375 30.816C61.9388 31.3707 61.7895 32.1813 61.7895 33.248V62.56C61.7895 63.9253 61.9602 64.928 62.3015 65.568C62.6855 66.1653 63.4108 66.592 64.4775 66.848C65.5868 67.104 67.2935 67.232 69.5975 67.232C69.7255 67.232 69.7895 67.36 69.7895 67.616C69.7895 67.872 69.7255 68 69.5975 68C67.8482 68 66.4828 67.9787 65.5015 67.936L59.7415 67.872L55.3895 67.936C54.6215 67.9787 53.5335 68 52.1255 68ZM74.6535 53.856C74.6535 51.9787 74.1415 50.6347 73.1175 49.824C72.1362 49.0133 70.4722 48.608 68.1255 48.608H59.8695V47.264H68.3175C70.5788 47.264 72.1788 46.9227 73.1175 46.24C74.0988 45.5147 74.5895 44.3627 74.5895 42.784C74.5895 42.6987 74.7175 42.656 74.9735 42.656C75.2295 42.656 75.3575 42.6987 75.3575 42.784L75.2935 47.968C75.2935 49.2053 75.3148 50.144 75.3575 50.784L75.4215 53.856C75.4215 53.9413 75.2935 53.984 75.0375 53.984C74.7815 53.984 74.6535 53.9413 74.6535 53.856Z" fill="black"/>
</svg>
